g BK_frag_014
v 0.1896143 0.5466191 0.01016954
v 0.03591087 0.5466191 -0.008968945
v 0.05215769 0.5466191 -0.02105703
v 0.1896143 0.5466191 0.01436171
v 0.2271044 0.5372764 0.01211969
v 0.2178804 0.5428214 0.02253038
v 0.2178804 0.5428214 0.0139216
v 0.227332 0.5371395 0.02976702
v 0.2304853 0.535244 0.01145924
v 0.2304853 0.535244 0.03218138
v 0.240759 0.5025704 -0.009171619
v 0.2380627 0.5226391 0.04620298
v 0.2380627 0.5226391 0.00432127
v 0.2410647 0.5002955 0.069475
v 0.2418604 0.494373 -0.01468298
v 0.2418604 0.494373 0.07564344
v 0.2103249 0.5438366 0.01291872
v 0.1896143 0.5466191 0.01436171
v 0.1896143 0.5466191 0.01016954
v 0.2105415 0.5438074 0.02040949
v 0.2178804 0.5428214 0.0139216
v 0.2178804 0.5428214 0.02253038
v 0.2325378 0.5318296 0.009525756
v 0.2304853 0.535244 0.03218138
v 0.2304853 0.535244 0.01145924
v 0.2323355 0.5321661 0.03560522
v 0.2380627 0.5226391 0.00432127
v 0.2380627 0.5226391 0.04620298
v -0.2454502 0.1496757 0.3536636
v -0.4136772 0.1602984 0.2685046
v -0.383829 0.1963001 0.2850483
v -0.2352503 0.05583544 0.3552993
v -0.2474548 0.02839309 0.3480533
v 0.2418604 -0.3959987 -0.2959816
v 0.2418605 -0.0780519 -0.4170147
v 0.2418604 -0.2556835 -0.3764587
v 0.2418605 0.1119484 -0.2834721
v 0.2418605 -0.2526718 0.1168577
v 0.2418604 -0.3959987 -0.01965454
v 0.2418604 -0.08745258 0.2742215
v 0.2418604 0.494373 0.07564344
v 0.2418604 0.494373 -0.01468298
v 0.2418604 0.2999087 0.2742215
v 0.2418604 -0.06101498 0.2994021
v 0.2418604 0.2857742 0.2886549
v 0.2380627 -0.4242648 -0.04524263
v 0.239682 -0.4122127 -0.2863182
v 0.2380627 -0.4242648 -0.2791354
v 0.2406875 -0.4047279 -0.02755674
v 0.2418604 -0.3959987 -0.01965454
v 0.2418604 -0.3959987 -0.2959816
v 0.2248734 -0.4402433 -0.2677681
v 0.2304853 -0.4368697 -0.05458635
v 0.2304853 -0.4368697 -0.2706403
v 0.2221466 -0.4418825 -0.05643156
v 0.2178804 -0.4444471 -0.264189
v 0.2178804 -0.4444471 -0.05737552
v 0.2304853 -0.4368697 -0.05458635
v 0.2338077 -0.4313429 -0.2743651
v 0.2304853 -0.4368697 -0.2706403
v 0.2355609 -0.4284264 -0.04832758
v 0.2380627 -0.4242648 -0.04524263
v 0.2380627 -0.4242648 -0.2791354
v 0.2024215 -0.446524 -0.2604158
v 0.2178804 -0.4444471 -0.05737552
v 0.2178804 -0.4444471 -0.264189
v 0.2083539 -0.445727 -0.05524813
v 0.1896143 -0.4482448 -0.2572897
v 0.1896143 -0.4482448 -0.05106325
v 0.2406875 -0.4047279 -0.02755674
v 0.2418605 -0.2526718 0.1168577
v 0.2418604 -0.3959987 -0.01965454
v 0.2355609 -0.4284264 -0.04832758
v 0.2380627 -0.4242648 -0.04524263
v 0.2083539 -0.445727 -0.05524813
v 0.2221466 -0.4418825 -0.05643156
v 0.2304853 -0.4368697 -0.05458635
v 0.2178804 -0.4444471 -0.05737552
v -0.1027829 -0.199564 0.2885092
v 0.2418604 -0.08745258 0.2742215
v 0.2418604 -0.06101498 0.2994021
v 0.1063487 -0.09223053 0.3172742
v -0.0348402 -0.4482448 0.02778471
v -0.07614338 -0.4482448 0.04229397
v 0.1896143 -0.4482448 -0.05106325
v -0.1027829 -0.199564 0.2885092
v -0.2352503 0.05583544 0.3552993
v 0.1063487 -0.09223053 0.3172742
v -0.2474548 0.02839309 0.3480533
v 0.1063487 -0.09223053 0.3172742
v 0.2418604 0.2857742 0.2886549
v 0.2418604 -0.06101498 0.2994021
v -0.2352503 0.05583544 0.3552993
v -0.2454502 0.1496757 0.3536636
v 0.1896143 -0.4482448 -0.2572897
v -0.0348402 -0.4482448 0.02778471
v 0.1896143 -0.4482448 -0.05106325
v -0.1914777 -0.4482448 -0.1441932
v -0.1678578 -0.4482448 -0.1975833
v -0.07614338 -0.4482448 0.04229397
v -0.1989266 -0.4482448 -0.1273557
v -0.009813041 -0.224537 -0.3522873
v 0.2418605 -0.0780519 -0.4170147
v 0.1585655 -0.04661201 -0.4138395
v 0.2418604 -0.2556835 -0.3764587
v -0.1678578 -0.4482448 -0.1975833
v -0.009813041 -0.224537 -0.3522873
v -0.1436287 -0.295746 -0.2890953
v 0.239682 -0.4122127 -0.2863182
v 0.2418604 -0.3959987 -0.2959816
v 0.2418604 -0.2556835 -0.3764587
v 0.2248734 -0.4402433 -0.2677681
v 0.2024215 -0.446524 -0.2604158
v 0.1896143 -0.4482448 -0.2572897
v 0.2178804 -0.4444471 -0.264189
v 0.2338077 -0.4313429 -0.2743651
v 0.2380627 -0.4242648 -0.2791354
v 0.2304853 -0.4368697 -0.2706403
v -0.1436287 -0.295746 -0.2890953
v -0.2313781 0.126551 -0.1522826
v -0.2397557 0.06771084 -0.1593856
v -0.009813041 -0.224537 -0.3522873
v 0.01130079 0.1914973 -0.2799378
v 0.1585655 -0.04661201 -0.4138395
v -0.03999609 0.5095776 0.01733423
v 0.05215769 0.5466191 -0.02105703
v 0.03591087 0.5466191 -0.008968945
v -0.2313781 0.126551 -0.1522826
v -0.2824343 0.2378309 -0.02364761
v 0.01130079 0.1914973 -0.2799378
v 0.2418605 0.1119484 -0.2834721
v 0.1585655 -0.04661201 -0.4138395
v 0.2418605 -0.0780519 -0.4170147
v 0.240759 0.5025704 -0.009171619
v 0.2418604 0.494373 -0.01468298
v 0.2271044 0.5372764 0.01211969
v 0.2325378 0.5318296 0.009525756
v 0.2380627 0.5226391 0.00432127
v 0.2304853 0.535244 0.01145924
v 0.1896143 0.5466191 0.01016954
v 0.01130079 0.1914973 -0.2799378
v 0.05215769 0.5466191 -0.02105703
v 0.2103249 0.5438366 0.01291872
v 0.2178804 0.5428214 0.0139216
v -0.2474548 0.02839309 0.3480533
v -0.4228772 0.1432129 0.2363481
v -0.4136772 0.1602984 0.2685046
v -0.07614338 -0.4482448 0.04229397
v -0.1027829 -0.199564 0.2885092
v -0.1989266 -0.4482448 -0.1273557
v 0.2105415 0.5438074 0.02040949
v 0.03591087 0.5466191 -0.008968945
v 0.1896143 0.5466191 0.01436171
v 0.227332 0.5371395 0.02976702
v 0.2178804 0.5428214 0.02253038
v 0.2410647 0.5002955 0.069475
v 0.2323355 0.5321661 0.03560522
v 0.2304853 0.535244 0.03218138
v 0.2380627 0.5226391 0.04620298
v 0.2418604 0.2857742 0.2886549
v 0.2418604 0.2999087 0.2742215
v 0.2418604 0.494373 0.07564344
v -0.383829 0.1963001 0.2850483
v -0.03999609 0.5095776 0.01733423
v -0.2454502 0.1496757 0.3536636
v -0.2397557 0.06771084 -0.1593856
v -0.2824343 0.2378309 -0.02364761
v -0.3625198 0.1766283 0.09186548
v -0.2313781 0.126551 -0.1522826
v -0.1436287 -0.295746 -0.2890953
v -0.1914777 -0.4482448 -0.1441932
v -0.1678578 -0.4482448 -0.1975833
v -0.3625198 0.1766283 0.09186548
v -0.2397557 0.06771084 -0.1593856
v -0.1989266 -0.4482448 -0.1273557
v -0.4228772 0.1432129 0.2363481
v -0.3625198 0.1766283 0.09186548
v -0.4136772 0.1602984 0.2685046
v -0.4228772 0.1432129 0.2363481
v -0.03999609 0.5095776 0.01733423
v -0.2824343 0.2378309 -0.02364761
v -0.383829 0.1963001 0.2850483
vt 0.03534401 0.1150462
vt 0.07583883 0.1127499
vt 0.07155843 0.1112996
vt 0.03534401 0.1155491
vt 0.02279153 0.1152679
vt 0.02679525 0.1165175
vt 0.02679525 0.1154842
vt 0.02269272 0.1173861
vt 0.02132404 0.1151805
vt 0.02132404 0.1176683
vt 0.8223287 0.3877046
vt 0.8286281 0.3946026
vt 0.8286281 0.3893854
vt 0.8216146 0.3975016
vt 0.8197557 0.387032
vt 0.8197557 0.3982796
vt 0.02908032 0.115376
vt 0.03534401 0.1155491
vt 0.03534401 0.1150462
vt 0.02901481 0.1162747
vt 0.02679525 0.1154842
vt 0.02679525 0.1165175
vt 0.8327683 0.3900337
vt 0.8343064 0.3928481
vt 0.8343064 0.390266
vt 0.8329198 0.3932824
vt 0.8286281 0.3893854
vt 0.8286281 0.3946026
vt 0.6824577 0.1178831
vt 0.6558068 0.1195628
vt 0.6606272 0.1252556
vt 0.6838475 0.1030447
vt 0.6818456 0.0987054
vt 0.5762979 0.3520042
vt 0.6632353 0.3369329
vt 0.6146648 0.341983
vt 0.7151878 0.3535618
vt 0.6154883 0.4034117
vt 0.5762979 0.3864129
vt 0.6606648 0.4230069
vt 0.8197557 0.3982796
vt 0.8197557 0.387032
vt 0.7665825 0.4230069
vt 0.6678938 0.4261425
vt 0.7627177 0.4248042
vt 0.5674255 0.3832112
vt 0.5712085 0.3531803
vt 0.5674255 0.3540751
vt 0.5735579 0.3854143
vt 0.5762979 0.3864129
vt 0.5762979 0.3520042
vt 0.0358984 0.4880513
vt 0.03376638 0.4656498
vt 0.03376638 0.4883531
vt 0.03693432 0.4658437
vt 0.03855511 0.4876605
vt 0.0385551 0.4659338
vt 0.5617472 0.3820366
vt 0.564237 0.3546516
vt 0.5617472 0.3551158
vt 0.5655507 0.3828164
vt 0.5674255 0.3832112
vt 0.5674255 0.3540751
vt 0.04264725 0.4872423
vt 0.0385551 0.4659338
vt 0.03855511 0.4876605
vt 0.04107688 0.4656969
vt 0.04603749 0.486914
vt 0.04603749 0.4652574
vt 0.6612587 0.03258331
vt 0.6546499 0.06489033
vt 0.661045 0.03443795
vt 0.6615481 0.02754812
vt 0.6617373 0.02843235
vt 0.6582441 0.02387231
vt 0.660139 0.02468916
vt 0.6611645 0.02575419
vt 0.6596143 0.02414426
vt 0.6006485 0.07617403
vt 0.6472781 0.09999408
vt 0.6460985 0.1056113
vt 0.6271898 0.09897891
vt 0.6219229 0.02333735
vt 0.6157354 0.02333735
vt 0.6555491 0.02333735
vt 0.6792166 0.08676635
vt 0.6605179 0.1284995
vt 0.7087868 0.104305
vt 0.6587902 0.1240153
vt 0.6117224 0.07333831
vt 0.6312298 0.1331043
vt 0.6310417 0.07827378
vt 0.5631452 0.09674887
vt 0.5617432 0.1115859
vt 0.04603749 0.486914
vt 0.09779587 0.4569773
vt 0.04603749 0.4652574
vt 0.1339159 0.4750373
vt 0.1284693 0.480644
vt 0.1073202 0.4554536
vt 0.1356336 0.4732692
vt 0.5846605 0.05739143
vt 0.548231 0.08112784
vt 0.5599698 0.08622239
vt 0.548938 0.05234441
vt 0.6119945 0.03325044
vt 0.5863585 0.07386898
vt 0.6064858 0.0609396
vt 0.5531119 0.03979278
vt 0.552583 0.04273674
vt 0.5507089 0.06821372
vt 0.5556082 0.03470327
vt 0.5589095 0.03356288
vt 0.5607679 0.03325044
vt 0.5566665 0.03393999
vt 0.5542091 0.03631932
vt 0.5535047 0.0376045
vt 0.5547589 0.03531584
vt 0.6650957 0.04780733
vt 0.6855303 0.1155691
vt 0.6860504 0.1061276
vt 0.6442537 0.05923355
vt 0.6468063 0.1259904
vt 0.619303 0.08778338
vt 0.6679255 0.1101347
vt 0.6542361 0.1171278
vt 0.6570984 0.1171278
vt 0.6753171 0.03782267
vt 0.6919602 0.05883133
vt 0.6370267 0.05008394
vt 0.6091365 0.0597397
vt 0.6246992 0.02936097
vt 0.6133179 0.02333735
vt 0.6006994 0.1345793
vt 0.6007201 0.1330088
vt 0.6019148 0.1412287
vt 0.6012471 0.1401852
vt 0.6006485 0.1384244
vt 0.6014693 0.1408393
vt 0.607143 0.1430187
vt 0.6408045 0.07498057
vt 0.627067 0.1430187
vt 0.6042024 0.1424856
vt 0.6031297 0.1422911
vt 0.6706649 0.2459156
vt 0.6423737 0.2256945
vt 0.6413365 0.2315155
vt 0.7380606 0.1905665
vt 0.7085357 0.2351368
vt 0.7270268 0.1598562
vt 0.6151856 0.176467
vt 0.6119407 0.1487141
vt 0.6142967 0.1731411
vt 0.61679 0.1791353
vt 0.6154974 0.1776333
vt 0.6244437 0.1813178
vt 0.6178714 0.1799305
vt 0.6172213 0.1796365
vt 0.6198838 0.1808407
vt 0.6677929 0.1814442
vt 0.6649374 0.1814442
vt 0.6256522 0.1814442
vt 0.676277 0.08200772
vt 0.6182603 0.1366507
vt 0.6878171 0.1039993
vt 0.6046451 0.07899499
vt 0.5823785 0.1036655
vt 0.5931929 0.1246602
vt 0.596264 0.08028594
vt 0.6667042 0.04613101
vt 0.6874207 0.07114834
vt 0.6877747 0.06193055
vt 0.5970332 0.1119039
vt 0.6141806 0.06852536
vt 0.6873092 0.07405532
vt 0.6008254 0.1368488
vt 0.6272442 0.09179791
vt 0.6338446 0.1200258
vt 0.6365011 0.114887
vt 0.5617432 0.07988743
vt 0.61321 0.07333831
vt 0.6272438 0.1226695
vn -2.481856E-07 1 0
vn -2.481856E-07 1 0
vn -2.126054E-07 1 -2.85749E-07
vn -2.481856E-07 1 0
vn 0.5152152 0.8570609 0
vn 0.5152236 0.8570557 -1.730288E-07
vn 0.5152237 0.8570557 0
vn 0.5152152 0.8570609 0
vn 0.5152152 0.8570609 0
vn 0.5152152 0.8570608 0
vn 0.9910945 0.1331608 -2.2611E-07
vn 0.9910946 0.1331598 -2.534619E-07
vn 0.9910947 0.1331591 0
vn 0.9910945 0.1331608 -2.2611E-07
vn 0.9910945 0.1331608 -2.2611E-07
vn 0.9910948 0.1331576 0
vn 0.1331653 0.9910938 4.698717E-07
vn 0.1331575 0.9910948 6.988724E-07
vn 0.1331575 0.9910949 0
vn 0.1331653 0.9910938 4.698717E-07
vn 0.1331653 0.9910938 4.698717E-07
vn 0.1331649 0.9910939 0
vn 0.8570552 0.5152246 -7.548085E-07
vn 0.85706 0.5152167 -6.171099E-07
vn 0.8570617 0.5152137 0
vn 0.8570552 0.5152246 -7.548085E-07
vn 0.8570552 0.5152246 -7.548085E-07
vn 0.8570563 0.5152228 0
vn -0.4530807 -0.03371871 0.8908315
vn -0.4530807 -0.03371872 0.8908316
vn -0.4530807 -0.03371872 0.8908315
vn -0.4530807 -0.03371907 0.8908315
vn -0.4530805 -0.03371866 0.8908318
vn 1 -3.567785E-07 -6.220578E-07
vn 1 -3.567785E-07 -6.220577E-07
vn 1 -3.567785E-07 -6.220577E-07
vn 1 0 1.107302E-07
vn 1 0 0
vn 1 -2.661537E-07 0
vn 1 1.236346E-07 1.126063E-07
vn 1 0 0
vn 1 0 0
vn 1 0 0
vn 1 -1.134433E-07 -1.110934E-07
vn 1 -1.134433E-07 -1.110934E-07
vn 0.9910946 -0.1331598 0
vn 0.9910946 -0.1331598 0
vn 0.9910946 -0.1331598 0
vn 0.9910949 -0.1331574 1.022959E-07
vn 0.9910939 -0.1331648 3.209312E-07
vn 0.9910946 -0.1331596 0
vn 0.5152148 -0.8570611 0
vn 0.5152243 -0.8570554 1.958354E-07
vn 0.5152298 -0.8570521 0
vn 0.5152148 -0.8570611 0
vn 0.5152148 -0.8570611 0
vn 0.5152158 -0.8570606 0
vn 0.8570557 -0.5152237 0
vn 0.8570557 -0.5152237 0
vn 0.8570557 -0.5152237 0
vn 0.8570559 -0.5152233 0
vn 0.8570594 -0.5152176 0
vn 0.8570594 -0.5152177 0
vn 0.1331598 -0.9910946 0
vn 0.1331556 -0.9910952 0
vn 0.1331569 -0.9910949 0
vn 0.1331598 -0.9910946 0
vn 0.1331598 -0.9910946 0
vn 0.1331615 -0.9910944 -1.833288E-07
vn 0.2464975 -0.6684019 0.7017677
vn 0.2464975 -0.6684018 0.7017678
vn 0.2464975 -0.6684019 0.7017677
vn 0.246517 -0.6683974 0.7017651
vn 0.246517 -0.6683974 0.7017651
vn 0.2465153 -0.6683833 0.7017791
vn 0.2465235 -0.668399 0.7017614
vn 0.2465236 -0.668399 0.7017614
vn 0.2465153 -0.6683833 0.7017791
vn 0.2465191 -0.6683981 0.7017637
vn 0.2465204 -0.6683972 0.701764
vn 0.2465208 -0.668398 0.7017632
vn 0.2465208 -0.6683981 0.7017632
vn 0.2465206 -0.6683974 0.7017638
vn 0.246519 -0.6683981 0.7017637
vn 0.2465206 -0.6683974 0.7017638
vn -0.002541412 -0.2542366 0.9671387
vn -0.002541412 -0.2542366 0.9671387
vn -0.002541958 -0.2542369 0.9671387
vn -0.002541412 -0.2542366 0.9671387
vn 0.1237298 0.03073752 0.9918398
vn 0.1237298 0.03073753 0.9918398
vn 0.1237298 0.03073753 0.9918398
vn 0.1237297 0.03073755 0.9918398
vn 0.1237297 0.03073761 0.9918398
vn 1.049744E-07 -1 -1.849761E-07
vn 1.049744E-07 -1 -1.849761E-07
vn 1.049744E-07 -1 -1.849761E-07
vn 0 -1 -2.463859E-07
vn 1.152275E-07 -1 0
vn -1.458454E-06 -1 1.106546E-06
vn -1.942805E-06 -1 1.406096E-06
vn -0.1203004 -0.2209709 -0.9678324
vn -0.1203004 -0.2209709 -0.9678324
vn -0.1203004 -0.2209709 -0.9678324
vn -0.1203004 -0.2209709 -0.9678324
vn -0.1433878 -0.4923818 -0.8584871
vn -0.1433878 -0.4923818 -0.8584871
vn -0.1433878 -0.4923818 -0.8584871
vn -0.1433685 -0.4923861 -0.8584878
vn -0.1433879 -0.4923818 -0.8584871
vn -0.1433878 -0.4923816 -0.8584872
vn -0.1433856 -0.4923865 -0.8584848
vn -0.1433872 -0.4923891 -0.8584831
vn -0.1433872 -0.4923891 -0.8584831
vn -0.1433856 -0.4923865 -0.8584848
vn -0.1433863 -0.4923841 -0.8584859
vn -0.1433685 -0.4923861 -0.8584878
vn -0.1433863 -0.4923841 -0.8584859
vn -0.4944198 0.1732203 -0.8517886
vn -0.4944198 0.1732203 -0.8517886
vn -0.4944198 0.1732203 -0.8517886
vn -0.4944199 0.1732202 -0.8517886
vn -0.4944198 0.1732203 -0.8517886
vn -0.4944199 0.1732202 -0.8517886
vn -0.4996813 0.5470711 -0.6715891
vn -0.4996813 0.547071 -0.6715891
vn -0.4996813 0.547071 -0.6715891
vn -0.4996813 0.5470712 -0.671589
vn -0.4996813 0.5470712 -0.671589
vn -0.4996813 0.5470712 -0.671589
vn 0.182729 0.5653473 -0.8043584
vn 0.182729 0.5653473 -0.8043584
vn 0.182729 0.5653473 -0.8043584
vn 0.1827459 0.5653457 -0.8043558
vn 0.182746 0.5653457 -0.8043558
vn 0.1827131 0.5653359 -0.80437
vn 0.1827314 0.5653484 -0.8043572
vn 0.1827314 0.5653484 -0.8043572
vn 0.1827131 0.5653359 -0.80437
vn 0.1827289 0.5653465 -0.804359
vn 0.1827291 0.5653474 -0.8043583
vn 0.1827292 0.5653474 -0.8043583
vn 0.1827286 0.5653459 -0.8043595
vn 0.1827286 0.565346 -0.8043595
vn -0.6738511 -0.5550466 0.4876965
vn -0.6738511 -0.5550466 0.4876965
vn -0.6738511 -0.5550466 0.4876965
vn -0.6738512 -0.5550464 0.4876966
vn -0.6738513 -0.5550465 0.4876966
vn -0.6738511 -0.5550465 0.4876967
vn -0.1056071 0.7104843 0.6957437
vn -0.1056071 0.7104843 0.6957437
vn -0.1056071 0.7104843 0.6957437
vn -0.105613 0.7104644 0.6957631
vn -0.105613 0.7104644 0.6957631
vn -0.1055999 0.710475 0.6957543
vn -0.1056435 0.7104554 0.6957677
vn -0.1056435 0.7104554 0.6957677
vn -0.1055999 0.710475 0.6957543
vn -0.1058599 0.7104534 0.6957368
vn -0.1055267 0.7104793 0.6957609
vn -0.1055267 0.7104793 0.6957609
vn -0.1056088 0.7104729 0.695755
vn -0.1056091 0.7104731 0.6957548
vn -0.1056088 0.7104729 0.695755
vn -0.8505211 0.1807211 -0.4939168
vn -0.850521 0.1807211 -0.4939168
vn -0.8505211 0.180721 -0.4939167
vn -0.8505211 0.1807211 -0.4939168
vn -0.9101892 -0.0970232 -0.402669
vn -0.9101892 -0.0970232 -0.402669
vn -0.9101892 -0.0970232 -0.402669
vn -0.9101892 -0.09702321 -0.4026689
vn -0.9101892 -0.09702322 -0.402669
vn -0.9101892 -0.09702329 -0.4026688
vn -0.910189 -0.09702317 -0.4026691
vn -0.7267044 0.6707165 -0.1484586
vn -0.7267044 0.6707165 -0.1484586
vn -0.7267044 0.6707165 -0.1484586
vn -0.7267043 0.6707167 -0.1484587
vn -0.7267043 0.6707166 -0.1484587
vn -0.7267045 0.6707163 -0.1484587
g BK_frag_014_0
f 3/3/3 2/2/2 1/1/1
f 4/4/4 1/1/1 2/2/2
f 7/7/7 6/6/6 5/5/5
f 6/6/6 8/8/8 5/5/5
f 5/5/5 8/8/8 9/9/9
f 8/8/8 10/10/10 9/9/9
f 13/13/13 12/12/12 11/11/11
f 12/12/12 14/14/14 11/11/11
f 11/11/11 14/14/14 15/15/15
f 14/14/14 16/16/16 15/15/15
f 19/19/19 18/18/18 17/17/17
f 18/18/18 20/20/20 17/17/17
f 17/17/17 20/20/20 21/21/21
f 20/20/20 22/22/22 21/21/21
f 25/25/25 24/24/24 23/23/23
f 24/24/24 26/26/26 23/23/23
f 23/23/23 26/26/26 27/27/27
f 26/26/26 28/28/28 27/27/27
f 31/31/31 30/30/30 29/29/29
f 30/30/30 32/32/32 29/29/29
f 33/33/33 32/32/32 30/30/30
f 36/36/36 35/35/35 34/34/34
f 35/35/35 37/37/37 34/34/34
f 37/37/37 38/38/38 34/34/34
f 38/38/38 39/39/39 34/34/34
f 40/40/40 38/38/38 37/37/37
f 41/41/41 40/40/40 37/37/37
f 42/42/42 41/41/41 37/37/37
f 43/43/43 40/40/40 41/41/41
f 40/40/40 43/43/43 44/44/44
f 45/45/45 44/44/44 43/43/43
f 48/48/48 47/47/47 46/46/46
f 47/47/47 49/49/49 46/46/46
f 50/50/50 49/49/49 47/47/47
f 51/51/51 50/50/50 47/47/47
f 54/54/54 53/53/53 52/52/52
f 53/53/53 55/55/55 52/52/52
f 52/52/52 55/55/55 56/56/56
f 55/55/55 57/57/57 56/56/56
f 60/60/60 59/59/59 58/58/58
f 59/59/59 61/61/61 58/58/58
f 62/62/62 61/61/61 59/59/59
f 63/63/63 62/62/62 59/59/59
f 66/66/66 65/65/65 64/64/64
f 65/65/65 67/67/67 64/64/64
f 64/64/64 67/67/67 68/68/68
f 67/67/67 69/69/69 68/68/68
f 72/72/72 71/71/71 70/70/70
f 71/71/71 73/73/73 70/70/70
f 73/73/73 74/74/74 70/70/70
f 75/75/75 73/73/73 71/71/71
f 76/76/76 73/73/73 75/75/75
f 77/77/77 73/73/73 76/76/76
f 78/78/78 76/76/76 75/75/75
f 79/79/79 75/75/75 71/71/71
f 80/80/80 79/79/79 71/71/71
f 81/81/81 79/79/79 80/80/80
f 82/82/82 79/79/79 81/81/81
f 83/83/83 75/75/75 79/79/79
f 84/84/84 83/83/83 79/79/79
f 85/85/85 75/75/75 83/83/83
f 88/88/88 87/87/87 86/86/86
f 89/89/89 86/86/86 87/87/87
f 92/92/92 91/91/91 90/90/90
f 91/91/91 93/93/93 90/90/90
f 94/94/94 93/93/93 91/91/91
f 97/97/97 96/96/96 95/95/95
f 96/96/96 98/98/98 95/95/95
f 98/98/98 99/99/99 95/95/95
f 100/100/100 98/98/98 96/96/96
f 101/101/101 98/98/98 100/100/100
f 104/104/104 103/103/103 102/102/102
f 105/105/105 102/102/102 103/103/103
f 108/108/108 107/107/107 106/106/106
f 107/107/107 109/109/109 106/106/106
f 110/110/110 109/109/109 107/107/107
f 111/111/111 110/110/110 107/107/107
f 109/109/109 112/112/112 106/106/106
f 112/112/112 113/113/113 106/106/106
f 113/113/113 114/114/114 106/106/106
f 115/115/115 113/113/113 112/112/112
f 116/116/116 112/112/112 109/109/109
f 117/117/117 116/116/116 109/109/109
f 118/118/118 112/112/112 116/116/116
f 121/121/121 120/120/120 119/119/119
f 120/120/120 122/122/122 119/119/119
f 123/123/123 122/122/122 120/120/120
f 124/124/124 122/122/122 123/123/123
f 127/127/127 126/126/126 125/125/125
f 126/126/126 128/128/128 125/125/125
f 128/128/128 129/129/129 125/125/125
f 130/130/130 128/128/128 126/126/126
f 133/133/133 132/132/132 131/131/131
f 132/132/132 134/134/134 131/131/131
f 134/134/134 135/135/135 131/131/131
f 136/136/136 134/134/134 132/132/132
f 137/137/137 134/134/134 136/136/136
f 138/138/138 134/134/134 137/137/137
f 139/139/139 137/137/137 136/136/136
f 140/140/140 136/136/136 132/132/132
f 141/141/141 140/140/140 132/132/132
f 142/142/142 140/140/140 141/141/141
f 143/143/143 136/136/136 140/140/140
f 144/144/144 136/136/136 143/143/143
f 147/147/147 146/146/146 145/145/145
f 146/146/146 148/148/148 145/145/145
f 148/148/148 149/149/149 145/145/145
f 150/150/150 148/148/148 146/146/146
f 153/153/153 152/152/152 151/151/151
f 152/152/152 154/154/154 151/151/151
f 154/154/154 155/155/155 151/151/151
f 156/156/156 154/154/154 152/152/152
f 157/157/157 154/154/154 156/156/156
f 158/158/158 154/154/154 157/157/157
f 159/159/159 157/157/157 156/156/156
f 160/160/160 156/156/156 152/152/152
f 161/161/161 156/156/156 160/160/160
f 162/162/162 156/156/156 161/161/161
f 163/163/163 160/160/160 152/152/152
f 164/164/164 163/163/163 152/152/152
f 165/165/165 160/160/160 163/163/163
f 168/168/168 167/167/167 166/166/166
f 169/169/169 166/166/166 167/167/167
f 172/172/172 171/171/171 170/170/170
f 171/171/171 173/173/173 170/170/170
f 173/173/173 174/174/174 170/170/170
f 175/175/175 173/173/173 171/171/171
f 176/176/176 173/173/173 175/175/175
f 179/179/179 178/178/178 177/177/177
f 178/178/178 180/180/180 177/177/177
f 180/180/180 181/181/181 177/177/177
f 182/182/182 180/180/180 178/178/178
